<mxfile host="Electron" modified="2023-04-11T14:50:06.339Z" agent="Mozilla/5.0 (X11; Linux x86_64) AppleWebKit/537.36 (KHTML, like Gecko) draw.io/21.1.2 Chrome/106.0.5249.199 Electron/21.4.3 Safari/537.36" etag="yj9XF2PuaRjuvhiFVP4S" version="21.1.2" type="device">
  <diagram name="Page-1" id="Vip7EMwg0ZEuJWHB0xQQ">
    <mxGraphModel dx="1434" dy="843" grid="1" gridSize="10" guides="1" tooltips="1" connect="1" arrows="1" fold="1" page="1" pageScale="1" pageWidth="850" pageHeight="1100" math="0" shadow="0">
      <root>
        <mxCell id="0" />
        <mxCell id="1" parent="0" />
        <mxCell id="bck0EXj3h6MQk-pcHhQd-4" style="edgeStyle=orthogonalEdgeStyle;rounded=0;orthogonalLoop=1;jettySize=auto;html=1;entryX=0.5;entryY=0;entryDx=0;entryDy=0;endArrow=none;endFill=0;strokeWidth=2;strokeColor=#CC00FF;" parent="1" source="bck0EXj3h6MQk-pcHhQd-1" target="bck0EXj3h6MQk-pcHhQd-2" edge="1">
          <mxGeometry relative="1" as="geometry" />
        </mxCell>
        <mxCell id="bck0EXj3h6MQk-pcHhQd-1" value="ESP32-CAM&lt;br&gt;MASTER" style="rounded=1;whiteSpace=wrap;html=1;fillColor=#dae8fc;strokeColor=#6c8ebf;" parent="1" vertex="1">
          <mxGeometry x="150" y="360" width="130" height="120" as="geometry" />
        </mxCell>
        <mxCell id="bck0EXj3h6MQk-pcHhQd-6" style="edgeStyle=orthogonalEdgeStyle;rounded=0;orthogonalLoop=1;jettySize=auto;html=1;endArrow=none;endFill=0;strokeColor=#00EEFF;strokeWidth=2;" parent="1" source="bck0EXj3h6MQk-pcHhQd-2" target="bck0EXj3h6MQk-pcHhQd-1" edge="1">
          <mxGeometry relative="1" as="geometry">
            <Array as="points">
              <mxPoint x="460" y="390" />
            </Array>
          </mxGeometry>
        </mxCell>
        <mxCell id="bck0EXj3h6MQk-pcHhQd-8" style="edgeStyle=orthogonalEdgeStyle;rounded=0;orthogonalLoop=1;jettySize=auto;html=1;endArrow=none;endFill=0;strokeWidth=2;" parent="1" source="bck0EXj3h6MQk-pcHhQd-2" target="bck0EXj3h6MQk-pcHhQd-1" edge="1">
          <mxGeometry relative="1" as="geometry">
            <Array as="points">
              <mxPoint x="410" y="450" />
            </Array>
          </mxGeometry>
        </mxCell>
        <mxCell id="bck0EXj3h6MQk-pcHhQd-2" value="Raspberry PICO&lt;br&gt;SLAVE&lt;br&gt;0X77" style="rounded=1;whiteSpace=wrap;html=1;fillColor=#fff2cc;strokeColor=#d6b656;" parent="1" vertex="1">
          <mxGeometry x="370" y="480" width="130" height="120" as="geometry" />
        </mxCell>
        <mxCell id="bck0EXj3h6MQk-pcHhQd-5" style="edgeStyle=orthogonalEdgeStyle;rounded=0;orthogonalLoop=1;jettySize=auto;html=1;startArrow=none;startFill=0;endArrow=none;endFill=0;strokeWidth=2;strokeColor=#CC00FF;" parent="1" source="bck0EXj3h6MQk-pcHhQd-3" target="bck0EXj3h6MQk-pcHhQd-1" edge="1">
          <mxGeometry relative="1" as="geometry">
            <Array as="points">
              <mxPoint x="645" y="420" />
            </Array>
          </mxGeometry>
        </mxCell>
        <mxCell id="bck0EXj3h6MQk-pcHhQd-7" style="edgeStyle=orthogonalEdgeStyle;rounded=0;orthogonalLoop=1;jettySize=auto;html=1;endArrow=none;endFill=0;strokeColor=#00EEFF;strokeWidth=2;" parent="1" source="bck0EXj3h6MQk-pcHhQd-3" target="bck0EXj3h6MQk-pcHhQd-1" edge="1">
          <mxGeometry relative="1" as="geometry">
            <Array as="points">
              <mxPoint x="670" y="390" />
            </Array>
          </mxGeometry>
        </mxCell>
        <mxCell id="bck0EXj3h6MQk-pcHhQd-9" style="edgeStyle=orthogonalEdgeStyle;rounded=0;orthogonalLoop=1;jettySize=auto;html=1;entryX=1;entryY=0.75;entryDx=0;entryDy=0;endArrow=none;endFill=0;strokeWidth=2;" parent="1" source="bck0EXj3h6MQk-pcHhQd-3" target="bck0EXj3h6MQk-pcHhQd-1" edge="1">
          <mxGeometry relative="1" as="geometry">
            <Array as="points">
              <mxPoint x="620" y="450" />
            </Array>
          </mxGeometry>
        </mxCell>
        <mxCell id="bck0EXj3h6MQk-pcHhQd-3" value="Raspberry PICO&lt;br&gt;SLAVE&lt;br&gt;0X76" style="rounded=1;whiteSpace=wrap;html=1;fillColor=#fff2cc;strokeColor=#d6b656;" parent="1" vertex="1">
          <mxGeometry x="580" y="480" width="130" height="120" as="geometry" />
        </mxCell>
        <mxCell id="bck0EXj3h6MQk-pcHhQd-10" value="SCK" style="text;html=1;align=center;verticalAlign=middle;resizable=0;points=[];autosize=1;strokeColor=none;fillColor=none;" parent="1" vertex="1">
          <mxGeometry x="290" y="360" width="50" height="30" as="geometry" />
        </mxCell>
        <mxCell id="bck0EXj3h6MQk-pcHhQd-11" value="SDA" style="text;html=1;align=center;verticalAlign=middle;resizable=0;points=[];autosize=1;strokeColor=none;fillColor=none;" parent="1" vertex="1">
          <mxGeometry x="290" y="390" width="50" height="30" as="geometry" />
        </mxCell>
        <mxCell id="bck0EXj3h6MQk-pcHhQd-12" value="GND" style="text;html=1;align=center;verticalAlign=middle;resizable=0;points=[];autosize=1;strokeColor=none;fillColor=none;" parent="1" vertex="1">
          <mxGeometry x="290" y="420" width="50" height="30" as="geometry" />
        </mxCell>
        <mxCell id="bck0EXj3h6MQk-pcHhQd-15" style="edgeStyle=orthogonalEdgeStyle;rounded=0;orthogonalLoop=1;jettySize=auto;html=1;entryX=0.5;entryY=0;entryDx=0;entryDy=0;endArrow=none;endFill=0;fillColor=#f8cecc;strokeColor=#B81A1A;strokeWidth=2;" parent="1" source="bck0EXj3h6MQk-pcHhQd-13" target="bck0EXj3h6MQk-pcHhQd-14" edge="1">
          <mxGeometry relative="1" as="geometry">
            <Array as="points">
              <mxPoint x="425" y="240" />
              <mxPoint x="510" y="240" />
            </Array>
          </mxGeometry>
        </mxCell>
        <mxCell id="bck0EXj3h6MQk-pcHhQd-16" style="edgeStyle=orthogonalEdgeStyle;rounded=0;orthogonalLoop=1;jettySize=auto;html=1;endArrow=none;endFill=0;strokeColor=#00EEFF;strokeWidth=2;" parent="1" source="bck0EXj3h6MQk-pcHhQd-13" edge="1">
          <mxGeometry relative="1" as="geometry">
            <mxPoint x="425" y="390.0000000000001" as="targetPoint" />
          </mxGeometry>
        </mxCell>
        <mxCell id="bck0EXj3h6MQk-pcHhQd-13" value="R" style="rounded=0;whiteSpace=wrap;html=1;fillColor=#f8cecc;strokeColor=#b85450;" parent="1" vertex="1">
          <mxGeometry x="415" y="270" width="20" height="60" as="geometry" />
        </mxCell>
        <mxCell id="bck0EXj3h6MQk-pcHhQd-17" style="edgeStyle=orthogonalEdgeStyle;rounded=0;orthogonalLoop=1;jettySize=auto;html=1;endArrow=none;endFill=0;strokeColor=#CC00FF;strokeWidth=2;" parent="1" source="bck0EXj3h6MQk-pcHhQd-14" edge="1">
          <mxGeometry relative="1" as="geometry">
            <mxPoint x="510" y="420.0000000000001" as="targetPoint" />
          </mxGeometry>
        </mxCell>
        <mxCell id="bck0EXj3h6MQk-pcHhQd-14" value="R" style="rounded=0;whiteSpace=wrap;html=1;fillColor=#f8cecc;strokeColor=#b85450;" parent="1" vertex="1">
          <mxGeometry x="500" y="270" width="20" height="60" as="geometry" />
        </mxCell>
        <mxCell id="bck0EXj3h6MQk-pcHhQd-19" style="edgeStyle=orthogonalEdgeStyle;rounded=0;orthogonalLoop=1;jettySize=auto;html=1;endArrow=none;endFill=0;fillColor=#f8cecc;strokeColor=#B81A1A;strokeWidth=2;" parent="1" source="bck0EXj3h6MQk-pcHhQd-18" edge="1">
          <mxGeometry relative="1" as="geometry">
            <mxPoint x="470" y="240" as="targetPoint" />
          </mxGeometry>
        </mxCell>
        <mxCell id="bck0EXj3h6MQk-pcHhQd-18" value="&lt;font style=&quot;font-size: 14px;&quot;&gt;5V&lt;/font&gt;" style="text;html=1;align=center;verticalAlign=middle;resizable=0;points=[];autosize=1;strokeColor=none;fillColor=none;" parent="1" vertex="1">
          <mxGeometry x="450" y="170" width="40" height="30" as="geometry" />
        </mxCell>
        <mxCell id="bck0EXj3h6MQk-pcHhQd-20" value="&lt;font style=&quot;font-size: 16px;&quot;&gt;I2C Connection schematic&lt;/font&gt;" style="text;html=1;align=center;verticalAlign=middle;resizable=0;points=[];autosize=1;strokeColor=none;fillColor=none;" parent="1" vertex="1">
          <mxGeometry x="330" y="630" width="210" height="30" as="geometry" />
        </mxCell>
        <mxCell id="bck0EXj3h6MQk-pcHhQd-21" value="4.7k" style="text;html=1;align=center;verticalAlign=middle;resizable=0;points=[];autosize=1;strokeColor=none;fillColor=none;" parent="1" vertex="1">
          <mxGeometry x="365" y="280" width="50" height="30" as="geometry" />
        </mxCell>
        <mxCell id="bck0EXj3h6MQk-pcHhQd-22" value="4.7k" style="text;html=1;align=center;verticalAlign=middle;resizable=0;points=[];autosize=1;strokeColor=none;fillColor=none;" parent="1" vertex="1">
          <mxGeometry x="520" y="280" width="50" height="30" as="geometry" />
        </mxCell>
      </root>
    </mxGraphModel>
  </diagram>
</mxfile>
